<mxfile host="Electron" agent="Mozilla/5.0 (Windows NT 10.0; Win64; x64) AppleWebKit/537.36 (KHTML, like Gecko) draw.io/24.7.8 Chrome/128.0.6613.36 Electron/32.0.1 Safari/537.36" version="24.7.8">
  <diagram name="INT Chain" id="pVeiws0xhU7a0nwYw0V9">
    <mxGraphModel dx="1012" dy="412" grid="1" gridSize="10" guides="1" tooltips="1" connect="1" arrows="1" fold="1" page="1" pageScale="1" pageWidth="827" pageHeight="1169" math="0" shadow="0">
      <root>
        <mxCell id="0" />
        <mxCell id="1" parent="0" />
        <mxCell id="uLyZbbT2JMtD4a8MixMj-12" style="edgeStyle=orthogonalEdgeStyle;rounded=0;orthogonalLoop=1;jettySize=auto;html=1;exitX=1;exitY=0.5;exitDx=0;exitDy=0;entryX=0;entryY=0.5;entryDx=0;entryDy=0;" edge="1" parent="1" source="uLyZbbT2JMtD4a8MixMj-1" target="uLyZbbT2JMtD4a8MixMj-2">
          <mxGeometry relative="1" as="geometry" />
        </mxCell>
        <mxCell id="uLyZbbT2JMtD4a8MixMj-1" value="CTC&lt;div&gt;cs1&lt;/div&gt;&lt;div&gt;Sys&lt;/div&gt;" style="rounded=0;whiteSpace=wrap;html=1;fillColor=#f5f5f5;strokeColor=#666666;fontColor=#333333;" vertex="1" parent="1">
          <mxGeometry x="240" y="240" width="40" height="80" as="geometry" />
        </mxCell>
        <mxCell id="uLyZbbT2JMtD4a8MixMj-11" style="edgeStyle=orthogonalEdgeStyle;rounded=0;orthogonalLoop=1;jettySize=auto;html=1;exitX=1;exitY=0.5;exitDx=0;exitDy=0;entryX=0;entryY=0.5;entryDx=0;entryDy=0;" edge="1" parent="1" source="uLyZbbT2JMtD4a8MixMj-2" target="uLyZbbT2JMtD4a8MixMj-3">
          <mxGeometry relative="1" as="geometry" />
        </mxCell>
        <mxCell id="uLyZbbT2JMtD4a8MixMj-13" style="edgeStyle=orthogonalEdgeStyle;rounded=0;orthogonalLoop=1;jettySize=auto;html=1;exitX=1;exitY=0.5;exitDx=0;exitDy=0;entryX=0;entryY=0.75;entryDx=0;entryDy=0;" edge="1" parent="1" source="uLyZbbT2JMtD4a8MixMj-2" target="uLyZbbT2JMtD4a8MixMj-7">
          <mxGeometry relative="1" as="geometry">
            <Array as="points">
              <mxPoint x="380" y="280" />
              <mxPoint x="380" y="330" />
              <mxPoint x="530" y="330" />
              <mxPoint x="530" y="290" />
            </Array>
          </mxGeometry>
        </mxCell>
        <mxCell id="uLyZbbT2JMtD4a8MixMj-2" value="SIO&lt;div&gt;cs7&lt;/div&gt;&lt;div&gt;uart&lt;/div&gt;" style="rounded=0;whiteSpace=wrap;html=1;fillColor=#f5f5f5;strokeColor=#666666;fontColor=#333333;" vertex="1" parent="1">
          <mxGeometry x="320" y="240" width="40" height="80" as="geometry" />
        </mxCell>
        <mxCell id="uLyZbbT2JMtD4a8MixMj-10" style="edgeStyle=orthogonalEdgeStyle;rounded=0;orthogonalLoop=1;jettySize=auto;html=1;exitX=1;exitY=0.5;exitDx=0;exitDy=0;" edge="1" parent="1" source="uLyZbbT2JMtD4a8MixMj-3" target="uLyZbbT2JMtD4a8MixMj-4">
          <mxGeometry relative="1" as="geometry" />
        </mxCell>
        <mxCell id="uLyZbbT2JMtD4a8MixMj-3" value="PIO&lt;div&gt;cs5&lt;/div&gt;&lt;div&gt;KbRow&lt;/div&gt;" style="rounded=0;whiteSpace=wrap;html=1;fillColor=#f5f5f5;strokeColor=#666666;fontColor=#333333;" vertex="1" parent="1">
          <mxGeometry x="400" y="240" width="40" height="80" as="geometry" />
        </mxCell>
        <mxCell id="uLyZbbT2JMtD4a8MixMj-9" style="edgeStyle=orthogonalEdgeStyle;rounded=0;orthogonalLoop=1;jettySize=auto;html=1;exitX=1;exitY=0.5;exitDx=0;exitDy=0;entryX=0;entryY=0.5;entryDx=0;entryDy=0;" edge="1" parent="1" source="uLyZbbT2JMtD4a8MixMj-4" target="uLyZbbT2JMtD4a8MixMj-7">
          <mxGeometry relative="1" as="geometry" />
        </mxCell>
        <mxCell id="uLyZbbT2JMtD4a8MixMj-4" value="PIO&lt;div&gt;cs2&lt;/div&gt;&lt;div&gt;Disp&lt;/div&gt;" style="rounded=0;whiteSpace=wrap;html=1;fillColor=#f5f5f5;strokeColor=#666666;fontColor=#333333;" vertex="1" parent="1">
          <mxGeometry x="480" y="240" width="40" height="80" as="geometry" />
        </mxCell>
        <mxCell id="uLyZbbT2JMtD4a8MixMj-19" style="edgeStyle=orthogonalEdgeStyle;rounded=0;orthogonalLoop=1;jettySize=auto;html=1;exitX=1;exitY=0.5;exitDx=0;exitDy=0;entryX=1;entryY=0.5;entryDx=0;entryDy=0;" edge="1" parent="1" source="uLyZbbT2JMtD4a8MixMj-5" target="uLyZbbT2JMtD4a8MixMj-18">
          <mxGeometry relative="1" as="geometry" />
        </mxCell>
        <mxCell id="uLyZbbT2JMtD4a8MixMj-5" value="PIO&lt;div&gt;cs4&lt;/div&gt;&lt;div&gt;KbCol&lt;/div&gt;" style="rounded=0;whiteSpace=wrap;html=1;fillColor=#f5f5f5;strokeColor=#666666;fontColor=#333333;" vertex="1" parent="1">
          <mxGeometry x="600" y="240" width="40" height="80" as="geometry" />
        </mxCell>
        <mxCell id="uLyZbbT2JMtD4a8MixMj-8" style="edgeStyle=orthogonalEdgeStyle;rounded=0;orthogonalLoop=1;jettySize=auto;html=1;exitX=1;exitY=0.5;exitDx=0;exitDy=0;entryX=0;entryY=0.5;entryDx=0;entryDy=0;" edge="1" parent="1" source="uLyZbbT2JMtD4a8MixMj-7" target="uLyZbbT2JMtD4a8MixMj-5">
          <mxGeometry relative="1" as="geometry" />
        </mxCell>
        <mxCell id="uLyZbbT2JMtD4a8MixMj-7" value="&amp;amp;" style="rounded=0;whiteSpace=wrap;html=1;" vertex="1" parent="1">
          <mxGeometry x="550" y="260" width="20" height="40" as="geometry" />
        </mxCell>
        <mxCell id="uLyZbbT2JMtD4a8MixMj-14" value="" style="pointerEvents=1;verticalLabelPosition=bottom;shadow=0;dashed=0;align=center;html=1;verticalAlign=top;shape=mxgraph.electrical.resistors.resistor_1;rotation=-90;" vertex="1" parent="1">
          <mxGeometry x="190" y="260" width="30" height="10" as="geometry" />
        </mxCell>
        <mxCell id="uLyZbbT2JMtD4a8MixMj-16" style="edgeStyle=orthogonalEdgeStyle;rounded=0;orthogonalLoop=1;jettySize=auto;html=1;exitX=1;exitY=0.5;exitDx=0;exitDy=0;entryX=0;entryY=0.5;entryDx=0;entryDy=0;" edge="1" parent="1" source="uLyZbbT2JMtD4a8MixMj-15" target="uLyZbbT2JMtD4a8MixMj-1">
          <mxGeometry relative="1" as="geometry" />
        </mxCell>
        <mxCell id="uLyZbbT2JMtD4a8MixMj-15" value="" style="triangle;whiteSpace=wrap;html=1;" vertex="1" parent="1">
          <mxGeometry x="170" y="270" width="10" height="20" as="geometry" />
        </mxCell>
        <mxCell id="uLyZbbT2JMtD4a8MixMj-18" value="" style="triangle;whiteSpace=wrap;html=1;direction=west;" vertex="1" parent="1">
          <mxGeometry x="670" y="270" width="10" height="20" as="geometry" />
        </mxCell>
        <mxCell id="uLyZbbT2JMtD4a8MixMj-21" value="" style="endArrow=none;html=1;rounded=0;" edge="1" parent="1">
          <mxGeometry width="50" height="50" relative="1" as="geometry">
            <mxPoint x="200" y="250" as="sourcePoint" />
            <mxPoint x="210" y="250" as="targetPoint" />
          </mxGeometry>
        </mxCell>
        <mxCell id="uLyZbbT2JMtD4a8MixMj-22" value="VCC" style="text;html=1;align=center;verticalAlign=middle;whiteSpace=wrap;rounded=0;" vertex="1" parent="1">
          <mxGeometry x="190" y="230" width="30" height="20" as="geometry" />
        </mxCell>
        <mxCell id="uLyZbbT2JMtD4a8MixMj-25" style="edgeStyle=orthogonalEdgeStyle;rounded=0;orthogonalLoop=1;jettySize=auto;html=1;entryX=0.5;entryY=1;entryDx=0;entryDy=0;" edge="1" parent="1" source="uLyZbbT2JMtD4a8MixMj-23" target="uLyZbbT2JMtD4a8MixMj-2">
          <mxGeometry relative="1" as="geometry" />
        </mxCell>
        <mxCell id="uLyZbbT2JMtD4a8MixMj-23" value="CTC&lt;div&gt;cs6&lt;/div&gt;&lt;div&gt;usart&lt;/div&gt;" style="rounded=0;whiteSpace=wrap;html=1;fillColor=#f5f5f5;strokeColor=#666666;fontColor=#333333;" vertex="1" parent="1">
          <mxGeometry x="240" y="360" width="40" height="80" as="geometry" />
        </mxCell>
        <mxCell id="uLyZbbT2JMtD4a8MixMj-24" value="PIO&lt;div&gt;cs3&lt;/div&gt;&lt;div&gt;Motor&lt;/div&gt;" style="rounded=0;whiteSpace=wrap;html=1;fillColor=#f5f5f5;strokeColor=#666666;fontColor=#333333;" vertex="1" parent="1">
          <mxGeometry x="440" y="360" width="40" height="80" as="geometry" />
        </mxCell>
        <mxCell id="uLyZbbT2JMtD4a8MixMj-26" value="" style="endArrow=none;html=1;rounded=0;" edge="1" parent="1">
          <mxGeometry width="50" height="50" relative="1" as="geometry">
            <mxPoint x="205" y="380" as="sourcePoint" />
            <mxPoint x="215" y="380" as="targetPoint" />
          </mxGeometry>
        </mxCell>
        <mxCell id="uLyZbbT2JMtD4a8MixMj-27" value="VCC" style="text;html=1;align=center;verticalAlign=middle;whiteSpace=wrap;rounded=0;" vertex="1" parent="1">
          <mxGeometry x="190" y="360" width="30" height="20" as="geometry" />
        </mxCell>
        <mxCell id="uLyZbbT2JMtD4a8MixMj-28" style="edgeStyle=orthogonalEdgeStyle;rounded=0;orthogonalLoop=1;jettySize=auto;html=1;exitX=0;exitY=0.5;exitDx=0;exitDy=0;entryX=0.66;entryY=1.005;entryDx=0;entryDy=0;entryPerimeter=0;endArrow=none;endFill=0;startArrow=classic;startFill=1;" edge="1" parent="1" source="uLyZbbT2JMtD4a8MixMj-23" target="uLyZbbT2JMtD4a8MixMj-27">
          <mxGeometry relative="1" as="geometry" />
        </mxCell>
        <mxCell id="uLyZbbT2JMtD4a8MixMj-31" value="&lt;font style=&quot;font-size: 10px;&quot;&gt;TO0&lt;/font&gt;" style="text;html=1;align=center;verticalAlign=middle;whiteSpace=wrap;rounded=0;fontSize=9;" vertex="1" parent="1">
          <mxGeometry x="290" y="390" width="20" height="10" as="geometry" />
        </mxCell>
        <mxCell id="uLyZbbT2JMtD4a8MixMj-32" value="&lt;font style=&quot;font-size: 10px;&quot;&gt;IEi&lt;/font&gt;" style="text;html=1;align=center;verticalAlign=middle;whiteSpace=wrap;rounded=0;fontSize=9;" vertex="1" parent="1">
          <mxGeometry x="150" y="275" width="20" height="10" as="geometry" />
        </mxCell>
        <mxCell id="uLyZbbT2JMtD4a8MixMj-34" value="&lt;font style=&quot;font-size: 10px;&quot;&gt;IE1&lt;/font&gt;" style="text;html=1;align=center;verticalAlign=middle;whiteSpace=wrap;rounded=0;fontSize=9;" vertex="1" parent="1">
          <mxGeometry x="290" y="270" width="20" height="10" as="geometry" />
        </mxCell>
        <mxCell id="uLyZbbT2JMtD4a8MixMj-35" value="&lt;font style=&quot;font-size: 10px;&quot;&gt;IE2&lt;/font&gt;" style="text;html=1;align=center;verticalAlign=middle;whiteSpace=wrap;rounded=0;fontSize=9;" vertex="1" parent="1">
          <mxGeometry x="370" y="270" width="20" height="10" as="geometry" />
        </mxCell>
        <mxCell id="uLyZbbT2JMtD4a8MixMj-36" value="IE3&lt;span style=&quot;color: rgba(0, 0, 0, 0); font-family: monospace; font-size: 0px; text-align: start; text-wrap: nowrap;&quot;&gt;%3CmxGraphModel%3E%3Croot%3E%3CmxCell%20id%3D%220%22%2F%3E%3CmxCell%20id%3D%221%22%20parent%3D%220%22%2F%3E%3CmxCell%20id%3D%222%22%20value%3D%22%26lt%3Bfont%20style%3D%26quot%3Bfont-size%3A%2010px%3B%26quot%3B%26gt%3BIEi%26lt%3B%2Ffont%26gt%3B%22%20style%3D%22text%3Bhtml%3D1%3Balign%3Dcenter%3BverticalAlign%3Dmiddle%3BwhiteSpace%3Dwrap%3Brounded%3D0%3BfontSize%3D9%3B%22%20vertex%3D%221%22%20parent%3D%221%22%3E%3CmxGeometry%20x%3D%22210%22%20y%3D%22270%22%20width%3D%2220%22%20height%3D%2210%22%20as%3D%22geometry%22%2F%3E%3C%2FmxCell%3E%3C%2Froot%3E%3C%2FmxGraphModel%3E&lt;/span&gt;" style="text;html=1;align=center;verticalAlign=middle;whiteSpace=wrap;rounded=0;fontSize=9;" vertex="1" parent="1">
          <mxGeometry x="450" y="270" width="20" height="10" as="geometry" />
        </mxCell>
        <mxCell id="uLyZbbT2JMtD4a8MixMj-37" value="IE4" style="text;html=1;align=center;verticalAlign=middle;whiteSpace=wrap;rounded=0;fontSize=9;" vertex="1" parent="1">
          <mxGeometry x="520" y="270" width="20" height="10" as="geometry" />
        </mxCell>
        <mxCell id="uLyZbbT2JMtD4a8MixMj-38" value="&lt;font style=&quot;font-size: 10px;&quot;&gt;IE5&lt;/font&gt;" style="text;html=1;align=center;verticalAlign=middle;whiteSpace=wrap;rounded=0;fontSize=9;" vertex="1" parent="1">
          <mxGeometry x="570" y="270" width="20" height="10" as="geometry" />
        </mxCell>
        <mxCell id="uLyZbbT2JMtD4a8MixMj-39" value="&lt;font style=&quot;font-size: 10px;&quot;&gt;IEo&lt;/font&gt;" style="text;html=1;align=center;verticalAlign=middle;whiteSpace=wrap;rounded=0;fontSize=9;" vertex="1" parent="1">
          <mxGeometry x="680" y="275" width="20" height="10" as="geometry" />
        </mxCell>
        <mxCell id="uLyZbbT2JMtD4a8MixMj-40" value="" style="endArrow=none;html=1;rounded=0;" edge="1" parent="1">
          <mxGeometry width="50" height="50" relative="1" as="geometry">
            <mxPoint x="405" y="380" as="sourcePoint" />
            <mxPoint x="415" y="380" as="targetPoint" />
          </mxGeometry>
        </mxCell>
        <mxCell id="uLyZbbT2JMtD4a8MixMj-41" value="VCC" style="text;html=1;align=center;verticalAlign=middle;whiteSpace=wrap;rounded=0;" vertex="1" parent="1">
          <mxGeometry x="390" y="360" width="30" height="20" as="geometry" />
        </mxCell>
        <mxCell id="uLyZbbT2JMtD4a8MixMj-42" style="edgeStyle=orthogonalEdgeStyle;rounded=0;orthogonalLoop=1;jettySize=auto;html=1;exitX=0;exitY=0.5;exitDx=0;exitDy=0;entryX=0.66;entryY=1.005;entryDx=0;entryDy=0;entryPerimeter=0;endArrow=none;endFill=0;startArrow=classic;startFill=1;" edge="1" parent="1" target="uLyZbbT2JMtD4a8MixMj-41">
          <mxGeometry relative="1" as="geometry">
            <mxPoint x="440" y="400" as="sourcePoint" />
          </mxGeometry>
        </mxCell>
      </root>
    </mxGraphModel>
  </diagram>
</mxfile>
